<svg width="19" height="14" viewBox="0 0 19 14" fill="none" xmlns="http://www.w3.org/2000/svg">
<path d="M6.78234 0L7.13682 0.641434C6.74295 2.48207 6.15216 4.62948 5.36443 7.08367C4.59245 9.53785 3.78897 11.8433 2.95398 14H0C0.456882 11.9363 0.921642 9.54714 1.39428 6.83267C1.88267 4.22975 2.24502 1.95219 2.48134 0H6.78234Z" fill="#2E3854"/>
<path d="M18.6455 0L19 0.641434C18.6061 2.48207 18.0153 4.62948 17.2276 7.08367C16.4556 9.53785 15.6522 11.8433 14.8172 14H11.8632C12.3201 11.9363 12.7848 9.54714 13.2575 6.83267C13.7459 4.22975 14.1082 1.95219 14.3445 0H18.6455Z" fill="#2E3854"/>
</svg>
